<?xml version="1.0" standalone="no"?>
<!DOCTYPE svg PUBLIC "-//W3C//DTD SVG 20010904//EN"
 "http://www.w3.org/TR/2001/REC-SVG-20010904/DTD/svg10.dtd">
<svg version="1.0" xmlns="http://www.w3.org/2000/svg"
 width="75.000000pt" height="75.000000pt" viewBox="0 0 75.000000 75.000000"
 preserveAspectRatio="xMidYMid meet">
<metadata>
Created by potrace 1.11, written by Peter Selinger 2001-2013
</metadata>
<g transform="translate(0.000000,75.000000) scale(0.100000,-0.100000)"
fill="#000000" stroke="none">
<path d="M150 708 c17 -24 48 -67 69 -97 49 -68 118 -139 153 -157 106 -56
248 57 248 197 0 43 -18 99 -32 99 -6 0 -7 -8 -3 -17 14 -34 17 -121 6 -156
-7 -20 -32 -54 -56 -76 -39 -36 -50 -41 -93 -41 -41 0 -57 6 -96 35 -25 20
-46 39 -46 43 0 4 -17 28 -37 54 -21 25 -58 71 -82 102 -51 65 -77 76 -31 14z"/>
<path d="M206 688 c26 -35 62 -83 80 -108 37 -51 83 -88 125 -100 39 -12 116
28 149 77 20 29 25 49 25 98 0 97 6 95 -226 95 l-199 0 46 -62z"/>
<path d="M630 748 c0 -2 9 -27 21 -57 26 -69 36 -201 20 -268 -16 -64 -63
-117 -118 -132 -22 -6 -47 -9 -54 -7 -8 2 -26 7 -41 10 -15 4 -43 20 -62 36
-31 28 -34 28 -29 9 4 -12 25 -41 47 -65 32 -33 51 -44 87 -49 89 -13 159 22
218 112 l31 46 0 184 0 183 -60 0 c-33 0 -60 -1 -60 -2z"/>
<path d="M0 587 l0 -135 80 -72 c81 -73 125 -130 117 -153 -2 -6 -11 3 -21 21
-19 37 -97 114 -145 143 l-31 19 0 -25 c0 -18 16 -36 63 -71 86 -65 127 -105
127 -124 0 -43 -58 -52 -140 -21 l-50 19 0 -95 0 -95 129 4 c126 3 130 4 173
34 59 43 78 83 78 169 0 80 -17 125 -78 208 -48 64 -211 237 -264 279 l-38 30
0 -135z"/>
<path d="M720 285 c-35 -46 -66 -62 -143 -75 -120 -19 -149 -38 -198 -131 -17
-31 -40 -62 -52 -68 -17 -8 20 -10 149 -8 l171 2 42 29 c23 16 47 38 52 48 5
10 8 67 7 127 l-3 109 -25 -33z"/>
<path d="M715 19 l-30 -19 33 0 c25 0 32 4 32 20 0 11 -1 20 -2 19 -2 0 -16
-9 -33 -20z"/>
</g>
</svg>
